<svg id="Layer_1" xmlns="http://www.w3.org/2000/svg" viewBox="0 0 153.3 36.9"><style>.st0{fill:#414042}</style><path class="st0" d="M16.4 18.5c0-.7.3-1 1-1h4.3V35h7.7V17.4h4.4c.7 0 1 .3 1 1v16.5h7.6V15.7c0-4.1-2-6.1-6-6.1H14.7c-4 0-6 2-6 6.1V35h7.7V18.5zm34.4 16.4h10.9c3.9 0 5.9-2 5.9-6V15.7c0-4.1-2-6.1-6-6.1H50.7c-4 0-6 2-6 6.1V29c0 3.9 2 5.9 6.1 5.9zm1.7-8.9v-7.5c0-.7.3-1 1-1h5.4c.7 0 1 .3 1 1v7.6c0 .7-.3 1-1 1h-5.4c-.7 0-1-.3-1-1.1zm23.3 8.9h16.8V2.3h-7.8v7.3h-9.2c-4 0-6 2-6 6.1V29c0 3.9 2.1 5.9 6.2 5.9zm1.6-8.9v-7.5c0-.7.3-1 1-1h6.4v9.7h-6.4c-.7-.1-1-.4-1-1.2zm23.6 8.9h10.5c3.9 0 5.9-2 5.9-6V9.6h-7.7v16.5c0 .7-.3 1-1 1h-5c-.7 0-1-.4-1-1.1V9.6h-7.8V29c0 3.9 2 5.9 6.1 5.9zm18.7-32.6h7.8V35h-7.8zm16.2 7.3c-4.1 0-6.1 2-6.1 6.1V35h7.8V18.4c0-.7.3-1 1-1h5.7V9.6h-8.4z"/></svg>