<svg id="Layer_1" xmlns="http://www.w3.org/2000/svg" viewBox="0 0 218 42"><style>.st0{fill:#fff}</style><path class="st0" d="M40.4 19.1h17.3c.6 0 1-.5 1-1v-6.7c0-.6-.5-1-1-1H40.4c-.6 0-1 .5-1 1v6.7c0 .5.5 1 1 1zm-21.3 0h17.3c.6 0 1-.5 1-1v-6.7c0-.6-.5-1-1-1H19.1c-.6 0-1 .5-1 1v6.7c0 .5.4 1 1 1zm-15.3 0h11.4c.6 0 1-.5 1-1v-6.7c0-.6-.5-1-1-1H3.8c-.6 0-1 .5-1 1v6.7c0 .5.5 1 1 1zm54 12.1H40.4c-.6 0-1 .5-1 1v6.7c0 .6.5 1 1 1h17.3c.6 0 1-.5 1-1v-6.7c.1-.5-.4-1-.9-1zm-21.4 0H19.1c-.6 0-1 .5-1 1v6.7c0 .6.5 1 1 1h17.3c.6 0 1-.5 1-1v-6.7c0-.5-.4-1-1-1zm-21.2 0H3.8c-.6 0-1 .5-1 1v6.7c0 .6.5 1 1 1h11.4c.6 0 1-.5 1-1v-6.7c.1-.5-.4-1-1-1zm6-1.6c.6 0 1-.5 1-1v-6.7c0-.6-.5-1-1-1H3.8c-.6 0-1 .5-1 1v6.7c0 .6.5 1 1 1h17.4zm4.1-8.8c-.6 0-1 .5-1 1v6.7c0 .6.5 1 1 1h17.3c.6 0 1-.5 1-1v-6.7c0-.6-.5-1-1-1H25.3zm32.5 0H46.3c-.6 0-1 .5-1 1v6.7c0 .6.5 1 1 1h11.4c.6 0 1-.5 1-1v-6.7c.1-.5-.4-1-.9-1z"/></svg>