<?xml version="1.0" encoding="utf-8"?>
<!-- Generator: Adobe Illustrator 22.0.0, SVG Export Plug-In . SVG Version: 6.00 Build 0)  -->
<svg version="1.1" id="Layer_1" xmlns="http://www.w3.org/2000/svg" xmlns:xlink="http://www.w3.org/1999/xlink" x="0px" y="0px"
	 viewBox="0 0 218 42" style="enable-background:new 0 0 218 42;" xml:space="preserve">
<style type="text/css">
	.st0{fill:#FFFFFF;}
</style>
<g>
	<path class="st0" d="M40.4,19.1h17.3c0.6,0,1-0.5,1-1v-6.7c0-0.6-0.5-1-1-1H40.4c-0.6,0-1,0.5-1,1v6.7
		C39.4,18.6,39.9,19.1,40.4,19.1z"/>
	<path class="st0" d="M19.1,19.1h17.3c0.6,0,1-0.5,1-1v-6.7c0-0.6-0.5-1-1-1H19.1c-0.6,0-1,0.5-1,1v6.7
		C18.1,18.6,18.5,19.1,19.1,19.1z"/>
	<path class="st0" d="M3.8,19.1h11.4c0.6,0,1-0.5,1-1v-6.7c0-0.6-0.5-1-1-1H3.8c-0.6,0-1,0.5-1,1v6.7C2.8,18.6,3.3,19.1,3.8,19.1z"
		/>
	<path class="st0" d="M57.8,31.2H40.4c-0.6,0-1,0.5-1,1v6.7c0,0.6,0.5,1,1,1h17.3c0.6,0,1-0.5,1-1v-6.7
		C58.8,31.7,58.3,31.2,57.8,31.2z"/>
	<path class="st0" d="M36.4,31.2H19.1c-0.6,0-1,0.5-1,1v6.7c0,0.6,0.5,1,1,1h17.3c0.6,0,1-0.5,1-1v-6.7C37.4,31.7,37,31.2,36.4,31.2
		z"/>
	<path class="st0" d="M15.2,31.2H3.8c-0.6,0-1,0.5-1,1v6.7c0,0.6,0.5,1,1,1h11.4c0.6,0,1-0.5,1-1v-6.7
		C16.3,31.7,15.8,31.2,15.2,31.2z"/>
	<path class="st0" d="M21.2,29.6c0.6,0,1-0.5,1-1v-6.7c0-0.6-0.5-1-1-1H3.8c-0.6,0-1,0.5-1,1v6.7c0,0.6,0.5,1,1,1H21.2z"/>
	<path class="st0" d="M25.3,20.8c-0.6,0-1,0.5-1,1v6.7c0,0.6,0.5,1,1,1h17.3c0.6,0,1-0.5,1-1v-6.7c0-0.6-0.5-1-1-1H25.3z"/>
	<path class="st0" d="M57.8,20.8H46.3c-0.6,0-1,0.5-1,1v6.7c0,0.6,0.5,1,1,1h11.4c0.6,0,1-0.5,1-1v-6.7
		C58.8,21.3,58.3,20.8,57.8,20.8z"/>
</g>
</svg>
